<svg width="720" height="150" viewBox="0 0 720 150" fill="none" xmlns="http://www.w3.org/2000/svg">
<g clip-path="url(#clip0_1_3)">
<g filter="url(#filter0_d_1_3)">
<path d="M100.939 15.376C107.851 15.376 113.739 16.144 118.603 17.68C123.552 19.1307 127.307 21.3067 129.867 24.208C132.512 27.1093 133.835 30.736 133.835 35.088C133.835 39.2693 132.64 42.8107 130.251 45.712C127.947 48.528 124.96 50.7893 121.291 52.496C117.622 54.2027 113.696 55.44 109.515 56.208C105.334 56.976 101.408 57.36 97.739 57.36V58.64C102.432 58.64 107.083 59.024 111.691 59.792C116.384 60.56 120.651 61.84 124.491 63.632C128.331 65.3387 131.403 67.6853 133.707 70.672C136.011 73.5733 137.163 77.1573 137.163 81.424C137.163 85.6907 136.31 89.4027 134.603 92.56C132.896 95.632 130.379 98.192 127.051 100.24C123.808 102.203 119.755 103.653 114.891 104.592C110.027 105.531 104.438 106 98.123 106H44.235V104.72L50.635 102.8V18.576L44.235 16.656V15.376H100.939ZM93.515 17.424C90.5283 17.424 88.0537 17.4667 86.091 17.552C84.2137 17.6373 82.8483 17.7653 81.995 17.936V103.44C83.4457 103.952 86.8163 104.208 92.107 104.208C94.5817 104.208 97.0137 103.483 99.403 102.032C101.792 100.496 103.755 97.936 105.291 94.352C106.827 90.6827 107.595 85.6907 107.595 79.376C107.595 71.952 106.102 66.704 103.115 63.632C100.128 60.56 95.819 59.024 90.187 59.024L81.227 58.768V57.36L90.187 57.104C93.1737 57.0187 95.8617 56.2933 98.251 54.928C100.726 53.4773 102.688 51.1733 104.139 48.016C105.59 44.7733 106.315 40.464 106.315 35.088C106.315 29.712 105.12 25.4453 102.731 22.288C100.427 19.0453 97.355 17.424 93.515 17.424ZM189.818 40.08C195.621 40.08 200.613 40.592 204.794 41.616C208.975 42.5547 212.431 44.048 215.162 46.096C217.893 48.144 219.898 50.704 221.178 53.776C222.458 56.7627 223.098 60.304 223.098 64.4V101.904C223.098 102.501 223.183 103.056 223.354 103.568C223.61 103.995 224.037 104.208 224.634 104.208C225.146 104.208 225.829 104.037 226.682 103.696C227.535 103.355 228.559 102.843 229.754 102.16V103.44C228.559 104.293 227.066 105.061 225.274 105.744C223.482 106.427 221.562 106.939 219.514 107.28C217.466 107.707 215.461 107.92 213.498 107.92C207.354 107.92 202.405 106.427 198.65 103.44C194.895 100.368 193.018 95.248 193.018 88.08C193.018 87.9093 193.018 87.7813 193.018 87.696C193.018 87.5253 193.018 87.3547 193.018 87.184C193.018 86.928 193.018 86.6293 193.018 86.288L192.122 85.52C190.586 89.0187 188.837 92.176 186.874 94.992C184.997 97.7227 182.906 100.069 180.602 102.032C178.383 103.909 176.037 105.36 173.562 106.384C171.087 107.408 168.527 107.92 165.882 107.92C162.554 107.92 159.61 107.28 157.05 106C154.49 104.72 152.442 102.971 150.906 100.752C149.455 98.5333 148.73 95.9733 148.73 93.072C148.73 85.904 152.613 80.3147 160.378 76.304C168.229 72.2933 179.109 70.288 193.018 70.288C193.018 62.864 192.677 57.1893 191.994 53.264C191.397 49.2533 190.074 46.5227 188.026 45.072C186.063 43.536 183.034 42.768 178.938 42.768C176.89 42.768 175.055 42.9813 173.434 43.408C171.898 43.7493 170.661 44.176 169.722 44.688C168.869 45.2 168.442 45.6267 168.442 45.968C168.442 46.48 169.039 47.0347 170.234 47.632C171.429 48.2293 173.605 49.04 176.762 50.064C182.991 52.112 186.106 55.2267 186.106 59.408C186.106 63.0773 184.442 65.8933 181.114 67.856C177.871 69.8187 173.733 70.8 168.698 70.8C163.749 70.8 159.653 69.8187 156.41 67.856C153.253 65.8933 151.674 63.0773 151.674 59.408C151.674 57.0187 152.698 54.672 154.746 52.368C156.794 50.064 159.61 48.016 163.194 46.224C166.778 44.3467 170.831 42.8533 175.354 41.744C179.962 40.6347 184.783 40.08 189.818 40.08ZM193.018 71.568C188.922 71.568 185.637 72.6347 183.162 74.768C180.687 76.9013 178.895 79.4613 177.786 82.448C176.677 85.4347 176.122 88.208 176.122 90.768C176.122 92.304 176.25 93.584 176.506 94.608C176.847 95.632 177.274 96.4 177.786 96.912C178.383 97.424 179.109 97.68 179.962 97.68C180.815 97.68 181.754 97.3813 182.778 96.784C183.802 96.1867 184.869 95.248 185.978 93.968C187.173 92.6027 188.367 90.8533 189.562 88.72C190.757 86.5013 191.909 83.8133 193.018 80.656V71.568ZM244.786 107.92V17.168H238.386V15.76L274.866 10.64V60.944L275.89 61.968C277.597 57.36 279.346 53.648 281.138 50.832C282.93 47.9307 284.765 45.712 286.642 44.176C288.605 42.64 290.61 41.5733 292.658 40.976C294.706 40.3787 296.839 40.08 299.058 40.08C303.069 40.08 306.439 40.976 309.17 42.768C311.901 44.4747 314.119 46.8213 315.826 49.808C317.618 52.7093 318.898 55.9947 319.666 59.664C320.434 63.248 320.818 66.9173 320.818 70.672C320.818 77.6693 319.751 83.5573 317.618 88.336C315.485 93.1147 312.626 96.9547 309.042 99.856C305.458 102.757 301.447 104.805 297.01 106C292.573 107.28 288.05 107.92 283.442 107.92C279.602 107.92 276.231 107.493 273.33 106.64C270.514 105.787 268.082 104.72 266.034 103.44C263.986 102.075 262.237 100.624 260.786 99.088C259.335 97.4667 258.098 95.9307 257.074 94.48H255.794L246.066 107.92H244.786ZM282.162 106C284.21 106 285.789 104.635 286.898 101.904C288.093 99.088 288.903 95.3333 289.33 90.64C289.842 85.9467 290.098 80.784 290.098 75.152C290.098 69.3493 289.97 64.6987 289.714 61.2C289.543 57.616 289.074 55.0133 288.306 53.392C287.623 51.7707 286.557 50.96 285.106 50.96C283.911 50.96 282.674 51.8133 281.394 53.52C280.199 55.2267 279.047 57.4453 277.938 60.176C276.829 62.9067 275.805 65.8507 274.866 69.008V84.24C274.866 88.848 275.079 92.6027 275.506 95.504C275.933 98.4053 276.487 100.624 277.17 102.16C277.938 103.611 278.749 104.635 279.602 105.232C280.455 105.744 281.309 106 282.162 106ZM355.99 107.792C349.505 107.792 344.598 105.957 341.27 102.288C338.027 98.5333 336.406 92.9013 336.406 85.392V46.48H330.006V45.2L366.486 40.08V89.872C366.486 92.5173 366.87 94.5653 367.638 96.016C368.406 97.4667 369.302 98.192 370.326 98.192C371.435 98.192 372.587 97.3387 373.782 95.632C375.062 93.9253 376.299 91.6213 377.494 88.72C378.689 85.8187 379.713 82.576 380.566 78.992V46.48H374.166V45.2L410.646 40.08V101.392H417.046V102.8L380.566 107.92V86.928L379.542 85.904C376.897 93.4987 373.697 99.0453 369.942 102.544C366.187 106.043 361.537 107.792 355.99 107.792ZM426.311 106V104.72L432.711 102.8V46.608H426.311V45.2L462.791 40.08V59.664L463.815 60.688C464.754 58.0427 465.735 55.6107 466.759 53.392C467.868 51.1733 468.978 49.3813 470.087 48.016C471.964 45.3707 474.183 43.408 476.743 42.128C479.388 40.7627 482.418 40.08 485.831 40.08C488.306 40.08 490.78 40.592 493.255 41.616C495.73 42.64 497.778 44.2187 499.399 46.352C501.106 48.4853 501.959 51.216 501.959 54.544C501.959 57.2747 501.276 59.7067 499.911 61.84C498.546 63.9733 496.626 65.6373 494.151 66.832C491.762 68.0267 488.946 68.624 485.703 68.624C482.802 68.624 480.199 68.112 477.895 67.088C475.676 65.9787 473.927 64.4853 472.647 62.608C471.367 60.7307 470.727 58.5973 470.727 56.208C470.727 55.184 470.812 54.288 470.983 53.52C471.239 52.6667 471.452 51.8987 471.623 51.216C471.879 50.448 472.007 49.808 472.007 49.296C472.007 48.6987 471.836 48.4 471.495 48.4C470.983 48.4 470.343 49.04 469.575 50.32C468.807 51.6 467.698 53.904 466.247 57.232C465.735 58.512 465.18 60.1333 464.583 62.096C463.986 63.9733 463.388 66.0213 462.791 68.24V102.8L469.191 104.72V106H426.311ZM550.668 40.08C556.471 40.08 561.463 40.592 565.644 41.616C569.825 42.5547 573.281 44.048 576.012 46.096C578.743 48.144 580.748 50.704 582.028 53.776C583.308 56.7627 583.948 60.304 583.948 64.4V101.904C583.948 102.501 584.033 103.056 584.204 103.568C584.46 103.995 584.887 104.208 585.484 104.208C585.996 104.208 586.679 104.037 587.532 103.696C588.385 103.355 589.409 102.843 590.604 102.16V103.44C589.409 104.293 587.916 105.061 586.124 105.744C584.332 106.427 582.412 106.939 580.364 107.28C578.316 107.707 576.311 107.92 574.348 107.92C568.204 107.92 563.255 106.427 559.5 103.44C555.745 100.368 553.868 95.248 553.868 88.08C553.868 87.9093 553.868 87.7813 553.868 87.696C553.868 87.5253 553.868 87.3547 553.868 87.184C553.868 86.928 553.868 86.6293 553.868 86.288L552.972 85.52C551.436 89.0187 549.687 92.176 547.724 94.992C545.847 97.7227 543.756 100.069 541.452 102.032C539.233 103.909 536.887 105.36 534.412 106.384C531.937 107.408 529.377 107.92 526.732 107.92C523.404 107.92 520.46 107.28 517.9 106C515.34 104.72 513.292 102.971 511.756 100.752C510.305 98.5333 509.58 95.9733 509.58 93.072C509.58 85.904 513.463 80.3147 521.228 76.304C529.079 72.2933 539.959 70.288 553.868 70.288C553.868 62.864 553.527 57.1893 552.844 53.264C552.247 49.2533 550.924 46.5227 548.876 45.072C546.913 43.536 543.884 42.768 539.788 42.768C537.74 42.768 535.905 42.9813 534.284 43.408C532.748 43.7493 531.511 44.176 530.572 44.688C529.719 45.2 529.292 45.6267 529.292 45.968C529.292 46.48 529.889 47.0347 531.084 47.632C532.279 48.2293 534.455 49.04 537.612 50.064C543.841 52.112 546.956 55.2267 546.956 59.408C546.956 63.0773 545.292 65.8933 541.964 67.856C538.721 69.8187 534.583 70.8 529.548 70.8C524.599 70.8 520.503 69.8187 517.26 67.856C514.103 65.8933 512.524 63.0773 512.524 59.408C512.524 57.0187 513.548 54.672 515.596 52.368C517.644 50.064 520.46 48.016 524.044 46.224C527.628 44.3467 531.681 42.8533 536.204 41.744C540.812 40.6347 545.633 40.08 550.668 40.08ZM553.868 71.568C549.772 71.568 546.487 72.6347 544.012 74.768C541.537 76.9013 539.745 79.4613 538.636 82.448C537.527 85.4347 536.972 88.208 536.972 90.768C536.972 92.304 537.1 93.584 537.356 94.608C537.697 95.632 538.124 96.4 538.636 96.912C539.233 97.424 539.959 97.68 540.812 97.68C541.665 97.68 542.604 97.3813 543.628 96.784C544.652 96.1867 545.719 95.248 546.828 93.968C548.023 92.6027 549.217 90.8533 550.412 88.72C551.607 86.5013 552.759 83.8133 553.868 80.656V71.568ZM638.148 40.08C644.292 40.08 649.711 40.9333 654.404 42.64C659.097 44.3467 663.023 46.7787 666.18 49.936C669.337 53.008 671.727 56.6347 673.348 60.816C674.969 64.9973 675.78 69.5627 675.78 74.512C675.78 78.864 674.969 83.0453 673.348 87.056C671.812 90.9813 669.465 94.5227 666.308 97.68C663.151 100.837 659.225 103.355 654.532 105.232C649.839 107.024 644.377 107.92 638.148 107.92C631.663 107.92 626.031 107.024 621.252 105.232C616.473 103.355 612.505 100.837 609.348 97.68C606.276 94.5227 603.972 90.9813 602.436 87.056C600.985 83.0453 600.26 78.864 600.26 74.512C600.26 69.5627 601.113 64.9973 602.82 60.816C604.612 56.6347 607.129 53.008 610.372 49.936C613.615 46.7787 617.583 44.3467 622.276 42.64C626.969 40.9333 632.26 40.08 638.148 40.08ZM638.148 41.36C636.1 41.36 634.564 42.9387 633.54 46.096C632.516 49.2533 631.833 53.3493 631.492 58.384C631.151 63.4187 630.98 68.7947 630.98 74.512C630.98 78.4373 631.023 82.32 631.108 86.16C631.279 90 631.577 93.456 632.004 96.528C632.516 99.6 633.241 102.075 634.18 103.952C635.204 105.744 636.527 106.64 638.148 106.64C639.599 106.64 640.751 105.744 641.604 103.952C642.543 102.16 643.268 99.728 643.78 96.656C644.292 93.584 644.633 90.128 644.804 86.288C644.975 82.448 645.06 78.5227 645.06 74.512C645.06 70.2453 644.975 66.1493 644.804 62.224C644.719 58.2133 644.463 54.672 644.036 51.6C643.609 48.4427 642.927 45.968 641.988 44.176C641.049 42.2987 639.769 41.36 638.148 41.36Z" fill="white"/>
</g>
</g>
<defs>
<filter id="filter0_d_1_3" x="40.235" y="10.64" width="639.545" height="105.28" filterUnits="userSpaceOnUse" color-interpolation-filters="sRGB">
<feFlood flood-opacity="0" result="BackgroundImageFix"/>
<feColorMatrix in="SourceAlpha" type="matrix" values="0 0 0 0 0 0 0 0 0 0 0 0 0 0 0 0 0 0 127 0" result="hardAlpha"/>
<feOffset dy="4"/>
<feGaussianBlur stdDeviation="2"/>
<feComposite in2="hardAlpha" operator="out"/>
<feColorMatrix type="matrix" values="0 0 0 0 0 0 0 0 0 0 0 0 0 0 0 0 0 0 0.25 0"/>
<feBlend mode="normal" in2="BackgroundImageFix" result="effect1_dropShadow_1_3"/>
<feBlend mode="normal" in="SourceGraphic" in2="effect1_dropShadow_1_3" result="shape"/>
</filter>
<clipPath id="clip0_1_3">
<rect width="720" height="150" fill="white"/>
</clipPath>
</defs>
</svg>
